<?xml version="1.0" encoding="UTF-8"?><svg xmlns="http://www.w3.org/2000/svg" xmlns:xlink="http://www.w3.org/1999/xlink" viewBox="0 0 1500 600"><defs><style>.cls-1{fill:url(#linear-gradient-2);}.cls-2{fill:url(#linear-gradient-3);}.cls-3{fill:url(#linear-gradient);}.cls-4{fill:url(#linear-gradient-4);}</style><linearGradient id="linear-gradient" x1="239.33" y1="308.36" x2="1269.6" y2="308.36" gradientUnits="userSpaceOnUse"><stop offset="0" stop-color="#f0f"/><stop offset=".2" stop-color="#af00ff"/><stop offset=".4" stop-color="#5f00ff"/><stop offset=".6" stop-color="blue"/><stop offset=".8" stop-color="#08f"/><stop offset="1" stop-color="aqua"/></linearGradient><linearGradient id="linear-gradient-2" x1="247.86" y1="298.81" x2="862.1" y2="298.81" gradientUnits="userSpaceOnUse"><stop offset="0" stop-color="red"/><stop offset=".2" stop-color="#f80"/><stop offset=".4" stop-color="#ff0"/><stop offset=".6" stop-color="lime"/><stop offset=".8" stop-color="aqua"/><stop offset="1" stop-color="#08f"/></linearGradient><linearGradient id="linear-gradient-3" x1="999.09" y1="310.91" x2="1245.22" y2="310.91" gradientUnits="userSpaceOnUse"><stop offset="0" stop-color="#08f"/><stop offset=".2" stop-color="aqua"/><stop offset=".4" stop-color="lime"/><stop offset=".6" stop-color="#ff0"/><stop offset=".8" stop-color="#f80"/><stop offset="1" stop-color="red"/></linearGradient><linearGradient id="linear-gradient-4" x1="247.86" y1="298.81" x2="1245.22" y2="298.81" gradientUnits="userSpaceOnUse"><stop offset="0" stop-color="lime"/><stop offset=".2" stop-color="#ff0"/><stop offset=".4" stop-color="#f80"/><stop offset=".6" stop-color="red"/><stop offset=".8" stop-color="#f0f"/><stop offset="1" stop-color="#af00ff"/></linearGradient></defs><g id="Layer_1"><path class="cls-3" d="m302.23,312.9h33.93c-.79,11.51-10.91,23.02-31.75,23.02s-35.52-13.89-35.52-35.92c0-20.04,13.69-35.91,34.92-35.91,11.31,0,21.43,4.56,29.57,11.91l20.24-18.65c-12.5-12.7-27.78-20.83-49.8-20.83-37.7,0-64.49,27.98-64.49,63.5s26.79,63.5,64.49,63.5c43.26,0,63.89-29.37,63.89-64.49v-11.31h-65.48v25.2Zm-54.37-25.2c5.16-26.39,26.99-45.64,55.96-45.64,17.06,0,30.36,5.16,40.68,14.88l-11.51,11.11c-8.33-5.75-18.65-9.52-29.17-9.52-20.83,0-35.92,12.1-40.68,29.17h-15.28Zm201.94,13.86c0-16.02-11.91-27.07-30.19-27.07h-35.58v85.04h20.84v-31.75l21.69,31.75h26.08l-22.96-31.61c12.61-3.12,20.13-11.48,20.13-26.36Zm-50.18,54h-10.35v-77.11h10.35v77.11Zm21.97-44.22h-16.73v-19.13h16.16c4.68,0,8.36,4.39,8.36,9.35s-3.12,9.78-7.8,9.78Zm75.26-39.69l-41.39,87.88h22.4l4.11-8.79h33.59l4.25,8.79h22.4l-41.67-87.88h-3.69Zm-22.68,83.91h-11.62l9.35-19.7h11.48l-9.21,19.7Zm51.45-19.7l9.35,19.7h-11.76l-9.07-19.7h11.48Zm-37.14,0l9.92-21.54h.28l9.78,21.54h-19.99Zm92.41-61.37h-29.62v85.04h29.62c27.21,0,44.51-19.99,44.51-42.66,0-23.95-19.42-42.38-44.51-42.38Zm-14.03,81.07h-10.35v-77.11h10.35v77.11Zm13.61-15.02h-8.36v-47.2h8.36c14.6,0,23.53,10.35,23.53,23.53,0,14.32-10.21,23.67-23.53,23.67Zm59.1,18.99h20.84v-85.04h-20.84v85.04Zm5.24-34.3h10.35v30.33h-10.35v-30.33Zm50.03,1.13h32.74v-18.14h-32.74v-15.31h35.43v-18.43h-56.27v85.04h57.83v-17.86h-36.99v-15.31Zm-5.24,19.28l-10.35,9.92v-77.11l10.35,10.49v56.69Zm107.29-20.69l-33.02-50.46h-21.97v85.04h20.83v-50.6l33.17,50.6h21.69v-85.04h-20.69v50.46Zm-39.4,30.62h-10.35v-68.18l10.35,16.3v51.88Zm44.65-77.11h10.21v67.61l-10.21-15.88v-51.73Zm25.08,14.46h18.99v66.62h20.98v-66.62h19.28v-18.43h-59.25v18.43Zm23.95,0h10.91v62.65h-10.91v-62.65Zm43.08,72.43h62.37v14.88h-62.37v-14.88Zm71.29-99.07h26.59v93.26h29.37v-93.26h26.99v-25.8h-82.94v25.8Zm33.53,0h15.28v87.7h-15.28v-87.7Zm81.01,60.09h32.74v-18.14h-32.74v-15.31h35.44v-18.43h-56.27v85.04h57.83v-17.86h-36.99v-15.31Zm-5.24,19.28l-10.35,9.92v-77.11l10.35,10.49v56.69Zm128.69-71.15h-23.95l-15.17,25.37-16.02-25.37h-24.24l27.36,40.82-28.63,44.22h23.81l16.87-26.79,17.58,26.79h23.81l-28.49-42.66,27.07-42.38Zm-20.55,3.97h12.62l-21.54,34.16-6.52-9.21,15.45-24.95Zm13.75,77.11h-11.91l-18.14-26.22,6.38-8.79,23.67,35.01Zm13.6-81.07v18.43h18.99v66.62h20.98v-66.62h19.28v-18.43h-59.25Zm34.87,81.07h-10.91v-62.65h10.91v62.65Z"/></g><g id="Layer_2"><path class="cls-1" d="m247.86,287.7c5.16-26.39,26.99-45.64,55.96-45.64,17.06,0,30.36,5.16,40.68,14.88l-11.51,11.11c-8.33-5.75-18.65-9.52-29.17-9.52-20.83,0-35.92,12.1-40.68,29.17h-15.28Zm151.77,67.86h-10.35v-77.11h10.35v77.11Zm74.55,0h-11.62l9.35-19.7h11.48l-9.21,19.7Zm51.45-19.7l9.35,19.7h-11.76l-9.07-19.7h11.48Zm41.24,19.7h-10.35v-77.11h10.35v77.11Zm77.95-30.33h10.35v30.33h-10.35v-30.33Zm44.79,20.41l-10.35,9.92v-77.11l10.35,10.49v56.69Zm67.89,9.92h-10.35v-68.18l10.35,16.3v51.88Zm44.65-77.11h10.21v67.61l-10.21-15.88v-51.73Zm49.04,14.46h10.91v62.65h-10.91v-62.65Z"/></g><g id="Layer_3"><path class="cls-2" d="m999.09,266.27h15.28v87.7h-15.28v-87.7Zm75.77,79.37l-10.35,9.92v-77.11l10.35,10.49v56.69Zm108.14-67.18h12.62l-21.54,34.16-6.52-9.21,15.45-24.95Zm13.75,77.11h-11.91l-18.14-26.22,6.38-8.79,23.67,35.01Zm48.47,0h-10.91v-62.65h10.91v62.65Z"/></g><g id="Layer_4"><path class="cls-4" d="m247.86,287.7c5.16-26.39,26.99-45.64,55.96-45.64,17.06,0,30.36,5.16,40.68,14.88l-11.51,11.11c-8.33-5.75-18.65-9.52-29.17-9.52-20.83,0-35.92,12.1-40.68,29.17h-15.28Zm151.77,67.86h-10.35v-77.11h10.35v77.11Zm74.55,0h-11.62l9.35-19.7h11.48l-9.21,19.7Zm51.45-19.7l9.35,19.7h-11.76l-9.07-19.7h11.48Zm41.24,19.7h-10.35v-77.11h10.35v77.11Zm77.95-30.33h10.35v30.33h-10.35v-30.33Zm44.79,20.41l-10.35,9.92v-77.11l10.35,10.49v56.69Zm67.89,9.92h-10.35v-68.18l10.35,16.3v51.88Zm44.65-77.11h10.21v67.61l-10.21-15.88v-51.73Zm49.04,14.46h10.91v62.65h-10.91v-62.65Zm147.91-26.64h15.28v87.7h-15.28v-87.7Zm75.77,79.37l-10.35,9.92v-77.11l10.35,10.49v56.69Zm108.14-67.18h12.62l-21.54,34.16-6.52-9.21,15.45-24.95Zm13.75,77.11h-11.91l-18.14-26.22,6.38-8.79,23.67,35.01Zm48.47,0h-10.91v-62.65h10.91v62.65Z"/></g></svg>