<?xml version="1.0" encoding="UTF-8"?><svg xmlns="http://www.w3.org/2000/svg" xmlns:xlink="http://www.w3.org/1999/xlink" viewBox="0 0 1500 296.67"><defs><style>.cls-1{fill:url(#linear-gradient-2);}.cls-2{fill:url(#linear-gradient-3);}.cls-3{fill:url(#linear-gradient);}.cls-4{fill:url(#linear-gradient-4);}</style><linearGradient id="linear-gradient" x1="52.15" y1="156.7" x2="1456.78" y2="156.7" gradientUnits="userSpaceOnUse"><stop offset="0" stop-color="#f0f"/><stop offset=".2" stop-color="#af00ff"/><stop offset=".4" stop-color="#5f00ff"/><stop offset=".6" stop-color="blue"/><stop offset=".8" stop-color="#08f"/><stop offset="1" stop-color="aqua"/></linearGradient><linearGradient id="linear-gradient-2" x1="63.78" y1="143.67" x2="901.2" y2="143.67" gradientUnits="userSpaceOnUse"><stop offset="0" stop-color="red"/><stop offset=".2" stop-color="#f80"/><stop offset=".4" stop-color="#ff0"/><stop offset=".6" stop-color="lime"/><stop offset=".8" stop-color="aqua"/><stop offset="1" stop-color="#08f"/></linearGradient><linearGradient id="linear-gradient-3" x1="1087.98" y1="160.17" x2="1423.54" y2="160.17" gradientUnits="userSpaceOnUse"><stop offset="0" stop-color="#08f"/><stop offset=".2" stop-color="aqua"/><stop offset=".4" stop-color="lime"/><stop offset=".6" stop-color="#ff0"/><stop offset=".8" stop-color="#f80"/><stop offset="1" stop-color="red"/></linearGradient><linearGradient id="linear-gradient-4" x1="63.78" y1="143.67" x2="1423.54" y2="143.67" gradientUnits="userSpaceOnUse"><stop offset="0" stop-color="lime"/><stop offset=".2" stop-color="#ff0"/><stop offset=".4" stop-color="#f80"/><stop offset=".6" stop-color="red"/><stop offset=".8" stop-color="#f0f"/><stop offset="1" stop-color="#af00ff"/></linearGradient></defs><g id="Layer_1"><path class="cls-3" d="m137.91,162.88h46.26c-1.08,15.69-14.88,31.38-43.28,31.38s-48.42-18.94-48.42-48.97c0-27.32,18.67-48.96,47.61-48.96,15.42,0,29.22,6.22,40.31,16.23l27.59-25.43c-17.04-17.31-37.87-28.41-67.9-28.41-51.4,0-87.92,38.14-87.92,86.57s36.52,86.57,87.92,86.57c58.97,0,87.11-40.04,87.11-87.92v-15.42h-89.27v34.36Zm-74.12-34.36c7.03-35.98,36.79-62.22,76.29-62.22,23.27,0,41.39,7.03,55.46,20.29l-15.69,15.15c-11.36-7.85-25.43-12.99-39.77-12.99-28.41,0-48.97,16.5-55.46,39.77h-20.83Zm275.32,18.89c0-21.84-16.23-36.91-41.16-36.91h-48.5v115.94h28.41v-43.29l29.57,43.29h35.56l-31.31-43.09c17.2-4.25,27.44-15.65,27.44-35.94Zm-68.41,73.62h-14.11v-105.12h14.11v105.12Zm29.95-60.29h-22.8v-26.09h22.03c6.38,0,11.4,5.99,11.4,12.75s-4.25,13.33-10.63,13.33Zm102.61-54.11l-56.43,119.81h30.53l5.6-11.98h45.8l5.8,11.98h30.53l-56.81-119.81h-5.02Zm-30.92,114.4h-15.85l12.75-26.86h15.65l-12.56,26.86Zm70.15-26.86l12.75,26.86h-16.04l-12.37-26.86h15.65Zm-50.63,0l13.53-29.37h.39l13.33,29.37h-27.25Zm125.99-83.67h-40.39v115.94h40.39c37.1,0,60.68-27.25,60.68-58.17,0-32.66-26.47-57.78-60.68-57.78Zm-19.13,110.53h-14.11v-105.12h14.11v105.12Zm18.55-20.48h-11.4v-64.35h11.4c19.9,0,32.08,14.11,32.08,32.08,0,19.52-13.91,32.27-32.08,32.27Zm80.57,25.89h28.41v-115.94h-28.41v115.94Zm7.15-46.76h14.11v41.35h-14.11v-41.35Zm68.21,1.55h44.64v-24.73h-44.64v-20.87h48.31v-25.12h-76.72v115.94h78.84v-24.35h-50.44v-20.87Zm-7.15,26.28l-14.11,13.53v-105.12l14.11,14.3v77.3Zm146.28-28.21l-45.02-68.79h-29.95v115.94h28.4v-68.99l45.22,68.99h29.57v-115.94h-28.21v68.79Zm-53.72,41.74h-14.11v-92.95l14.11,22.22v70.73Zm60.87-105.12h13.91v92.18l-13.91-21.64v-70.53Zm34.2,19.71h25.89v90.82h28.6v-90.82h26.28v-25.12h-80.78v25.12Zm32.66,0h14.88v85.41h-14.88v-85.41Zm58.74,98.75h85.03v20.29h-85.03v-20.29Zm97.19-135.07h36.25v127.15h40.04v-127.15h36.79v-35.17h-113.08v35.17Zm45.72,0h20.83v119.57h-20.83v-119.57Zm110.45,81.93h44.64v-24.73h-44.64v-20.87h48.31v-25.12h-76.72v115.94h78.84v-24.35h-50.44v-20.87Zm-7.15,26.28l-14.11,13.53v-105.12l14.11,14.3v77.3Zm175.46-97.01h-32.66l-20.68,34.59-21.84-34.59h-33.04l37.3,55.65-39.03,60.29h32.46l23-36.52,23.96,36.52h32.47l-38.84-58.17,36.91-57.78Zm-28.02,5.41h17.2l-29.37,46.57-8.89-12.56,21.06-34.01Zm18.74,105.12h-16.23l-24.73-35.75,8.7-11.98,32.27,47.73Zm18.54-110.53v25.12h25.89v90.82h28.6v-90.82h26.28v-25.12h-80.78Zm47.54,110.53h-14.88v-85.41h14.88v85.41Z"/></g><g id="Layer_2"><path class="cls-1" d="m63.78,128.52c7.03-35.98,36.79-62.22,76.29-62.22,23.27,0,41.39,7.03,55.46,20.29l-15.69,15.15c-11.36-7.85-25.43-12.99-39.77-12.99-28.41,0-48.97,16.5-55.46,39.77h-20.83Zm206.91,92.52h-14.11v-105.12h14.11v105.12Zm101.64,0h-15.85l12.75-26.86h15.65l-12.56,26.86Zm70.15-26.86l12.75,26.86h-16.04l-12.37-26.86h15.65Zm56.23,26.86h-14.11v-105.12h14.11v105.12Zm106.27-41.35h14.11v41.35h-14.11v-41.35Zm61.06,27.83l-14.11,13.53v-105.12l14.11,14.3v77.3Zm92.56,13.53h-14.11v-92.95l14.11,22.22v70.73Zm60.87-105.12h13.91v92.18l-13.91-21.64v-70.53Zm66.85,19.71h14.88v85.41h-14.88v-85.41Z"/></g><g id="Layer_3"><path class="cls-2" d="m1087.98,99.3h20.83v119.57h-20.83v-119.57Zm103.3,108.21l-14.11,13.53v-105.12l14.11,14.3v77.3Zm147.44-91.6h17.2l-29.37,46.57-8.89-12.56,21.06-34.01Zm18.74,105.12h-16.23l-24.73-35.75,8.7-11.98,32.27,47.73Zm66.08,0h-14.88v-85.41h14.88v85.41Z"/></g><g id="Layer_4"><path class="cls-4" d="m63.78,128.52c7.03-35.98,36.79-62.22,76.29-62.22,23.27,0,41.39,7.03,55.46,20.29l-15.69,15.15c-11.36-7.85-25.43-12.99-39.77-12.99-28.41,0-48.97,16.5-55.46,39.77h-20.83Zm206.91,92.52h-14.11v-105.12h14.11v105.12Zm101.64,0h-15.85l12.75-26.86h15.65l-12.56,26.86Zm70.15-26.86l12.75,26.86h-16.04l-12.37-26.86h15.65Zm56.23,26.86h-14.11v-105.12h14.11v105.12Zm106.27-41.35h14.11v41.35h-14.11v-41.35Zm61.06,27.83l-14.11,13.53v-105.12l14.11,14.3v77.3Zm92.56,13.53h-14.11v-92.95l14.11,22.22v70.73Zm60.87-105.12h13.91v92.18l-13.91-21.64v-70.53Zm66.85,19.71h14.88v85.41h-14.88v-85.41Zm201.65-36.32h20.83v119.57h-20.83v-119.57Zm103.3,108.21l-14.11,13.53v-105.12l14.11,14.3v77.3Zm147.44-91.6h17.2l-29.37,46.57-8.89-12.56,21.06-34.01Zm18.74,105.12h-16.23l-24.73-35.75,8.7-11.98,32.27,47.73Zm66.08,0h-14.88v-85.41h14.88v85.41Z"/></g></svg>